<svg width="24.000000" height="24.000000" viewBox="0 0 24 24" fill="none" xmlns="http://www.w3.org/2000/svg"
	xmlns:xlink="http://www.w3.org/1999/xlink">


	<path id="icon"
		d="M10 3C11.23 2.28 12.76 2.28 14 3L18.79 5.76C20.03 6.48 20.79 7.8 20.79 9.23L20.79 14.76C20.79 16.19 20.03 17.51 18.79 18.23L14 21C12.76 21.71 11.23 21.71 10 21L5.2 18.23C3.96 17.51 3.2 16.19 3.2 14.76L3.2 9.23C3.2 7.8 3.96 6.48 5.2 5.76L10 3ZM13 8C13 7.44 12.55 7 12 7C11.44 7 11 7.44 11 8L11 12C11 12.55 11.44 13 12 13C12.55 13 13 12.55 13 12L13 8ZM12 15C11.44 15 11 15.44 11 16C11 16.55 11.44 17 12 17L12 17C12.56 17 13 16.55 13 16C13 15.44 12.56 15 12 15L12 15Z"
		fill="currentColor" fill-opacity="1.000000" fill-rule="evenodd" />
</svg>