<svg width="24.000000" height="24.000000" viewBox="0 0 24 24" fill="none" xmlns="http://www.w3.org/2000/svg"
	xmlns:xlink="http://www.w3.org/1999/xlink">


	<path id="icon"
		d="M6.2 2.87C6.76 2.31 7.53 2 8.32 2L15.67 2C16.46 2 17.23 2.31 17.79 2.87L21.12 6.2C21.68 6.76 22 7.53 22 8.32L22 15.67C22 16.46 21.68 17.23 21.12 17.79L17.79 21.12C17.23 21.68 16.46 22 15.67 22L8.32 22C7.53 22 6.76 21.68 6.2 21.12L2.87 17.79C2.31 17.23 2 16.46 2 15.67L2 8.32C2 7.53 2.31 6.76 2.87 6.2L6.2 2.87ZM13 8C13 7.44 12.55 7 12 7C11.44 7 11 7.44 11 8L11 12C11 12.55 11.44 13 12 13C12.55 13 13 12.55 13 12L13 8ZM12 15C11.44 15 11 15.44 11 16C11 16.55 11.44 17 12 17L12 17C12.56 17 13 16.55 13 16C13 15.44 12.56 15 12 15L12 15Z"
		fill="currentColor" fill-opacity="1.000000" fill-rule="evenodd" />
</svg>