<svg width="24.000000" height="24.000000" viewBox="0 0 24 24" fill="none" xmlns="http://www.w3.org/2000/svg"
	xmlns:xlink="http://www.w3.org/1999/xlink">


	<path id="icon"
		d="M2 6C2 3.79 3.79 2 6 2L18 2C20.2 2 22 3.79 22 6L22 18C22 20.2 20.2 22 18 22L6 22C3.79 22 2 20.2 2 18L2 6ZM13 8C13 7.44 12.55 7 12 7C11.44 7 11 7.44 11 8L11 12C11 12.55 11.44 13 12 13C12.55 13 13 12.55 13 12L13 8ZM12 15C11.44 15 11 15.44 11 16C11 16.55 11.44 17 12 17L12 17C12.56 17 13 16.55 13 16C13 15.44 12.56 15 12 15L12 15Z"
		fill="currentColor" fill-opacity="1.000000" fill-rule="evenodd" />
</svg>