<svg width="24.000000" height="24.000000" viewBox="0 0 24 24" fill="none" xmlns="http://www.w3.org/2000/svg"
	xmlns:xlink="http://www.w3.org/1999/xlink">


	<path id="icon"
		d="M9.37 3.7C10.51 1.63 13.48 1.63 14.62 3.7L21.43 16.07C22.89 18.73 20.96 21.99 17.92 21.99L6.07 21.99C3.03 21.99 1.1 18.73 2.56 16.07L9.37 3.7ZM13 9C13 8.44 12.55 8 12 8C11.44 8 11 8.44 11 9L11 13C11 13.55 11.44 14 12 14C12.55 14 13 13.55 13 13L13 9ZM12 16C11.44 16 11 16.44 11 17C11 17.55 11.44 18 12 18L12 18C12.56 18 13 17.55 13 17C13 16.44 12.56 16 12 16L12 16Z"
		fill="currentColor" fill-opacity="1.000000" fill-rule="evenodd" />
</svg>