<svg width="24.000000" height="24.000000" viewBox="0 0 24 24" fill="none" xmlns="http://www.w3.org/2000/svg"
	xmlns:xlink="http://www.w3.org/1999/xlink">


	<path id="icon"
		d="M12 3C15.31 3 18 5.78 18 9.22C18 10.96 17.31 12.53 16.2 13.66C15.75 14.12 15.42 14.7 15.42 15.35L15.42 16L15.42 17.57C15.42 19.46 13.89 21 12 21C10.1 21 8.57 19.46 8.57 17.57L8.57 16L8.57 15.35C8.57 14.7 8.24 14.12 7.79 13.66C6.68 12.53 6 10.96 6 9.22C6 5.78 8.68 3 12 3ZM8.57 16L15.42 16"
		stroke="currentColor" stroke-opacity="1.000000" stroke-width="1.500000" stroke-linejoin="round" />
</svg>