<svg width="24.000000" height="24.000000" viewBox="0 0 24 24" fill="none" xmlns="http://www.w3.org/2000/svg"
	xmlns:xlink="http://www.w3.org/1999/xlink">


	<path id="icon"
		d="M3 13L8.29 7.7C8.68 7.31 9.31 7.31 9.7 7.7L12.29 10.29C12.68 10.68 13.31 10.68 13.7 10.29L21 3M17 3L21 3L21 7M7 19C7 20.1 6.1 21 5 21C3.89 21 3 20.1 3 19L3 18C3 16.89 3.89 16 5 16C6.1 16 7 16.89 7 18L7 19ZM14 19C14 20.1 13.1 21 12 21C10.89 21 10 20.1 10 19L10 16C10 14.89 10.89 14 12 14C13.1 14 14 14.89 14 16L14 19ZM21 19C21 20.1 20.1 21 19 21C17.89 21 17 20.1 17 19L17 13C17 11.89 17.89 11 19 11C20.1 11 21 11.89 21 13L21 19Z"
		stroke="currentColor" stroke-opacity="1.000000" stroke-width="1.500000" stroke-linejoin="round"
		stroke-linecap="round" />
</svg>