<svg width="24.000000" height="24.000000" viewBox="0 0 24 24" fill="none" xmlns="http://www.w3.org/2000/svg"
	xmlns:xlink="http://www.w3.org/1999/xlink">


	<path id="icon"
		d="M7 19C7 20.1 6.1 21 5 21C3.89 21 3 20.1 3 19L3 5C3 3.89 3.89 3 5 3C6.1 3 7 3.89 7 5L7 19ZM14 19C14 20.1 13.1 21 12 21C10.89 21 10 20.1 10 19L10 11C10 9.89 10.89 9 12 9C13.1 9 14 9.89 14 11L14 19ZM21 19C21 20.1 20.1 21 19 21C17.89 21 17 20.1 17 19L17 17C17 15.89 17.89 15 19 15C20.1 15 21 15.89 21 17L21 19Z"
		stroke="currentColor" stroke-opacity="1.000000" stroke-width="1.500000" />
</svg>