<svg width="24.000000" height="24.000000" viewBox="0 0 24 24" fill="none" xmlns="http://www.w3.org/2000/svg"
	xmlns:xlink="http://www.w3.org/1999/xlink">


	<path id="icon"
		d="M14.86 3.46C15.04 3.52 15.08 3.74 14.95 3.86L11.89 6.93C11.84 6.97 11.79 7 11.72 7C9.5 7.12 7.66 8.7 7.14 10.8C7.11 10.91 7.01 11 6.89 11L3.33 11C3.18 11 3.06 10.87 3.08 10.72C3.7 6.35 7.46 3 12 3C13 3 13.96 3.16 14.86 3.46ZM18.41 6.06C18.51 5.96 18.68 5.96 18.77 6.07C20.16 7.65 21 9.73 21 12C21 14.02 20.33 15.89 19.2 17.39C19.11 17.51 18.93 17.52 18.83 17.42L16.31 14.9C16.23 14.81 16.21 14.68 16.28 14.58C16.73 13.83 17 12.94 17 12C17 10.82 16.59 9.74 15.91 8.89C15.83 8.79 15.84 8.64 15.93 8.55L18.41 6.06ZM12.58 16.96C12.66 16.96 12.74 16.98 12.79 17.03L15.62 19.87C15.75 19.99 15.71 20.2 15.55 20.26C14.46 20.73 13.26 21 12 21C8.2 21 4.95 18.65 3.63 15.33C3.57 15.17 3.69 15 3.86 15L7.87 15C7.95 15 8.02 15.03 8.07 15.09C8.99 16.25 10.4 17 12 17C12.19 17 12.39 16.98 12.58 16.96Z"
		stroke="currentColor" stroke-opacity="1.000000" stroke-width="1.500000" />
</svg>