<svg width="24.000000" height="24.000000" viewBox="0 0 24 24" fill="none" xmlns="http://www.w3.org/2000/svg"
	xmlns:xlink="http://www.w3.org/1999/xlink">


	<path id="icon"
		d="M5.54 8.55L10.5 13.5L16.5 13.5C17.05 13.5 17.5 13.95 17.42 14.49C16.94 17.89 14.02 20.5 10.5 20.5C8.56 20.5 6.81 19.71 5.54 18.44C4.28 17.18 3.5 15.43 3.5 13.5C3.5 11.56 4.28 9.81 5.54 8.55C6.59 7.5 7.96 6.78 9.5 6.57C10.04 6.49 10.5 6.94 10.5 7.49L10.5 13.5M10.5 13.5L5.54 18.44M20.42 9.5C20.5 10.04 20.05 10.5 19.5 10.5L14.5 10.5C13.94 10.5 13.5 10.05 13.5 9.49L13.5 4.49C13.5 3.94 13.95 3.49 14.49 3.57C17.56 4 19.99 6.43 20.42 9.5Z"
		stroke="currentColor" stroke-opacity="1.000000" stroke-width="1.500000" />
</svg>