<svg width="24.000000" height="24.000000" viewBox="0 0 24 24" fill="none" xmlns="http://www.w3.org/2000/svg"
	xmlns:xlink="http://www.w3.org/1999/xlink">


	<path id="icon"
		d="M2 12C2 6.47 6.47 2 12 2C17.52 2 22 6.47 22 12C22 17.52 17.52 22 12 22C6.47 22 2 17.52 2 12ZM16.7 10.7C17.09 10.31 17.09 9.68 16.7 9.29C16.31 8.9 15.68 8.9 15.29 9.29L11 13.58L8.7 11.29C8.31 10.9 7.68 10.9 7.29 11.29C6.9 11.68 6.9 12.31 7.29 12.7L9.58 15C10.36 15.78 11.63 15.78 12.41 15L16.7 10.7Z"
		fill="currentColor" fill-opacity="1.000000" fill-rule="evenodd" />
</svg>