<svg width="24.000000" height="24.000000" viewBox="0 0 24 24" fill="none" xmlns="http://www.w3.org/2000/svg"
	xmlns:xlink="http://www.w3.org/1999/xlink">


	<path id="icon"
		d="M2 6C2 3.79083 3.79102 2 6 2L18 2C20.209 2 22 3.79083 22 6L22 18C22 20.2092 20.209 22 18 22L6 22C3.79102 22 2 20.2092 2 18L2 6ZM16.707 10.7071C17.0977 10.3166 17.0977 9.68341 16.707 9.29291C16.3164 8.90234 15.6836 8.90234 15.293 9.29291L11 13.5858L8.70703 11.2929C8.31641 10.9023 7.68359 10.9023 7.29297 11.2929C6.90234 11.6834 6.90234 12.3166 7.29297 12.7071L9.58594 15C10.3672 15.7811 11.6328 15.7811 12.4141 15L16.707 10.7071Z"
		clip-rule="evenodd" fill="currentColor" fill-opacity="1.000000" fill-rule="evenodd" />
</svg>