<svg width="24.000000" height="24.000000" viewBox="0 0 24 24" fill="none" xmlns="http://www.w3.org/2000/svg"
	xmlns:xlink="http://www.w3.org/1999/xlink">


	<path id="icon"
		d="M10 3C11.23 2.28 12.76 2.28 14 3L18.79 5.76C20.03 6.48 20.79 7.8 20.79 9.23L20.79 14.76C20.79 16.19 20.03 17.51 18.79 18.23L14 21C12.76 21.71 11.23 21.71 10 21L5.2 18.23C3.96 17.51 3.2 16.19 3.2 14.76L3.2 9.23C3.2 7.8 3.96 6.48 5.2 5.76L10 3ZM16.7 10.7C17.09 10.31 17.09 9.68 16.7 9.29C16.31 8.9 15.68 8.9 15.29 9.29L11 13.58L8.7 11.29C8.31 10.9 7.68 10.9 7.29 11.29C6.9 11.68 6.9 12.31 7.29 12.7L9.58 15C10.36 15.78 11.63 15.78 12.41 15L16.7 10.7Z"
		fill="currentColor" fill-opacity="1.000000" fill-rule="evenodd" />
</svg>