<svg width="24.000000" height="24.000000" viewBox="0 0 24 24" fill="none" xmlns="http://www.w3.org/2000/svg"
	xmlns:xlink="http://www.w3.org/1999/xlink">


	<path id="icon"
		d="M9.37 3.7C10.51 1.63 13.48 1.63 14.62 3.7L21.43 16.07C22.89 18.73 20.96 21.99 17.92 21.99L6.07 21.99C3.03 21.99 1.1 18.73 2.56 16.07L9.37 3.7ZM14.76 13.64C15.12 13.21 15.06 12.58 14.64 12.23C14.21 11.87 13.58 11.93 13.23 12.35L11.5 14.43L10.76 13.55C10.41 13.13 9.78 13.07 9.36 13.43C8.93 13.78 8.87 14.41 9.23 14.84L9.96 15.71C10.76 16.67 12.23 16.67 13.03 15.71L14.76 13.64Z"
		fill="currentColor" fill-opacity="1.000000" fill-rule="evenodd" />
</svg>