<svg width="24.000000" height="24.000000" viewBox="0 0 24 24" fill="none" xmlns="http://www.w3.org/2000/svg"
	xmlns:xlink="http://www.w3.org/1999/xlink">


	<path id="icon"
		d="M18 3C19.65 3 21 4.34 21 6L21 14C21 15.65 19.65 17 18 17L16.96 17C16.35 17 15.77 17.27 15.39 17.75L13.56 20.04C12.76 21.04 11.23 21.04 10.43 20.04L8.6 17.75C8.22 17.27 7.64 17 7.03 17L6 17C4.34 17 3 15.65 3 14L3 6C3 4.34 4.34 3 6 3L18 3Z"
		stroke="currentColor" stroke-opacity="1.000000" stroke-width="1.500000" />
</svg>