<svg width="24.000000" height="24.000000" viewBox="0 0 24 24" fill="none" xmlns="http://www.w3.org/2000/svg"
	xmlns:xlink="http://www.w3.org/1999/xlink">


	<path id="icon"
		d="M12 21L12 19M5.63 18.36C4 16.73 3 14.48 3 12C3 9.51 4 7.26 5.63 5.63C7.26 4 9.51 3 12 3C14.48 3 16.73 4 18.36 5.63C19.99 7.26 21 9.51 21 12C21 14.48 19.99 16.73 18.36 18.36C16.73 19.99 14.48 21 12 21C9.51 21 7.26 19.99 5.63 18.36ZM21 12L18.5 12M3 12L5.5 12M12 3L12 5.5M12 9L15 15L12 14L9 15L12 9Z"
		stroke="currentColor" stroke-opacity="1.000000" stroke-width="1.500000" stroke-linejoin="round"
		stroke-linecap="round" />
</svg>