<svg width="24.000000" height="24.000000" viewBox="0 0 24 24" fill="none" xmlns="http://www.w3.org/2000/svg"
	xmlns:xlink="http://www.w3.org/1999/xlink">


	<path id="icon"
		d="M13 4C14.1 4 15 4.89 15 6L15 13C15 14.1 14.1 15 13 15L6 15C4.89 15 4 14.1 4 13L4 6C4 4.89 4.89 4 6 4L13 4ZM17.5 9L18 9C19.1 9 20 9.89 20 11L20 18C20 19.1 19.1 20 18 20L11 20C9.89 20 9 19.1 9 18L9 17.5"
		stroke="currentColor" stroke-opacity="1.000000" stroke-width="1.500000" stroke-linejoin="round"
		stroke-linecap="round" />
</svg>