<svg width="24.000000" height="24.000000" viewBox="0 0 24 24" fill="none" xmlns="http://www.w3.org/2000/svg"
	xmlns:xlink="http://www.w3.org/1999/xlink">


	<path id="icon"
		d="M14.57 18L8 18C6.89 18 6 17.1 6 16L6 3M21 18L18 18M10.5 6L16 6C17.1 6 18 6.89 18 8L18 21M3 6L6 6M13 10C13.55 10 14 10.44 14 11L14 13C14 13.55 13.55 14 13 14L11 14C10.44 14 10 13.55 10 13L10 11C10 10.44 10.44 10 11 10L13 10Z"
		stroke="currentColor" stroke-opacity="1.000000" stroke-width="1.500000" stroke-linejoin="round"
		stroke-linecap="round" />
</svg>