<svg width="24.000000" height="24.000000" viewBox="0 0 24 24" fill="none" xmlns="http://www.w3.org/2000/svg"
	xmlns:xlink="http://www.w3.org/1999/xlink">


	<path id="icon"
		d="M9.37 3.7C10.51 1.63 13.48 1.63 14.62 3.7L21.43 16.07C22.89 18.73 20.96 21.99 17.92 21.99L6.07 21.99C3.03 21.99 1.1 18.73 2.56 16.07L9.37 3.7ZM10.7 12.29C10.31 11.9 9.68 11.9 9.29 12.29C8.9 12.68 8.9 13.31 9.29 13.7L10.58 15L9.29 16.29C8.9 16.68 8.9 17.31 9.29 17.7C9.68 18.09 10.31 18.09 10.7 17.7L12 16.41L13.29 17.7C13.68 18.09 14.31 18.09 14.7 17.7C15.09 17.31 15.09 16.68 14.7 16.29L13.41 15L14.7 13.7C15.09 13.31 15.09 12.68 14.7 12.29C14.31 11.9 13.68 11.9 13.29 12.29L12 13.58L10.7 12.29Z"
		fill="currentColor" fill-opacity="1.000000" fill-rule="evenodd" />
</svg>