<svg width="24.000000" height="24.000000" viewBox="0 0 24 24" fill="none" xmlns="http://www.w3.org/2000/svg"
	xmlns:xlink="http://www.w3.org/1999/xlink">


	<path id="icon"
		d="M18.29 6.63C19.22 7.16 19.79 8.16 19.79 9.23L19.79 14.76C19.79 15.83 19.22 16.83 18.29 17.36L13.49 20.13C12.57 20.66 11.42 20.66 10.49 20.13L5.7 17.36C4.77 16.83 4.2 15.83 4.2 14.76L4.2 9.23C4.2 8.16 4.77 7.16 5.7 6.63L10.49 3.86C11.42 3.33 12.57 3.33 13.49 3.86L18.29 6.63ZM8.99 9L11.99 12L14.99 15M14.99 9L11.99 12M11.99 12L8.99 15"
		stroke="currentColor" stroke-opacity="1.000000" stroke-width="1.500000" stroke-linecap="round" />
</svg>