<svg width="24.000000" height="24.000000" viewBox="0 0 24 24" fill="none" xmlns="http://www.w3.org/2000/svg"
	xmlns:xlink="http://www.w3.org/1999/xlink">


	<path id="icon"
		d="M10 3C11.23 2.28 12.76 2.28 14 3L18.79 5.76C20.03 6.48 20.79 7.8 20.79 9.23L20.79 14.76C20.79 16.19 20.03 17.51 18.79 18.23L14 21C12.76 21.71 11.23 21.71 10 21L5.2 18.23C3.96 17.51 3.2 16.19 3.2 14.76L3.2 9.23C3.2 7.8 3.96 6.48 5.2 5.76L10 3ZM9.7 8.29C9.31 7.9 8.68 7.9 8.29 8.29C7.9 8.68 7.9 9.31 8.29 9.7L10.58 12L8.29 14.29C7.9 14.68 7.9 15.31 8.29 15.7C8.68 16.09 9.31 16.09 9.7 15.7L12 13.41L14.29 15.7C14.68 16.09 15.31 16.09 15.7 15.7C16.09 15.31 16.09 14.68 15.7 14.29L13.41 12L15.7 9.7C16.09 9.31 16.09 8.68 15.7 8.29C15.31 7.9 14.68 7.9 14.29 8.29L12 10.58L9.7 8.29Z"
		fill="currentColor" fill-opacity="1.000000" fill-rule="evenodd" />
</svg>