<svg width="24.000000" height="24.000000" viewBox="0 0 24 24" fill="none" xmlns="http://www.w3.org/2000/svg"
	xmlns:xlink="http://www.w3.org/1999/xlink">


	<path id="icon"
		d="M9 3C9.55 3 10 3.44 10 4L10 12C10 12.55 9.55 13 9 13L4 13C3.44 13 3 12.55 3 12L3 4C3 3.44 3.44 3 4 3L9 3ZM20 11C20.55 11 21 11.44 21 12L21 20C21 20.55 20.55 21 20 21L15 21C14.44 21 14 20.55 14 20L14 12C14 11.44 14.44 11 15 11L20 11ZM20 3C20.55 3 21 3.44 21 4L21 6C21 6.55 20.55 7 20 7L15 7C14.44 7 14 6.55 14 6L14 4C14 3.44 14.44 3 15 3L20 3ZM9 17C9.55 17 10 17.44 10 18L10 20C10 20.55 9.55 21 9 21L4 21C3.44 21 3 20.55 3 20L3 18C3 17.44 3.44 17 4 17L9 17Z"
		stroke="currentColor" stroke-opacity="1.000000" stroke-width="1.500000" stroke-linejoin="round" />
</svg>