<svg width="24.000000" height="24.000000" viewBox="0 0 24 24" fill="none" xmlns="http://www.w3.org/2000/svg"
	xmlns:xlink="http://www.w3.org/1999/xlink">


	<path id="icon"
		d="M9 14.8C9 14.91 9.08 15 9.2 15L11.68 15C11.73 15 11.79 14.97 11.82 14.94L20.85 5.91C20.93 5.83 20.93 5.7 20.85 5.62L18.37 3.14C18.29 3.06 18.16 3.06 18.08 3.14L9.05 12.17C9.02 12.2 9 12.26 9 12.31L9 14.8ZM21 12L21 16L21 16.75C21 17.55 20.68 18.31 20.12 18.87L18.87 20.12C18.31 20.68 17.55 21 16.75 21L16 21L6 21C4.34 21 3 19.65 3 18L3 6C3 4.34 4.34 3 6 3L12 3M21 16L18 16C16.89 16 16 16.89 16 18L16 21"
		stroke="currentColor" stroke-opacity="1.000000" stroke-width="1.500000" stroke-linejoin="round"
		stroke-linecap="round" />
</svg>