<svg width="24.000000" height="24.000000" viewBox="0 0 24 24" fill="none" xmlns="http://www.w3.org/2000/svg"
	xmlns:xlink="http://www.w3.org/1999/xlink">


	<path id="icon"
		d="M10.2 21C10.06 21 9.95 20.88 9.95 20.75L9.95 13.25C9.95 13.11 9.83 13 9.7 13L7.25 13C7.11 13 7 12.88 7 12.75L7 10.23C7 10.09 7.11 9.98 7.25 9.98L9.7 9.98C9.83 9.98 9.95 9.87 9.95 9.73L9.95 7C9.95 4.79 11.74 3 13.95 3L16.75 3C16.88 3 17 3.11 17 3.25L17 5.99C17 6.13 16.88 6.24 16.75 6.24L14.2 6.24C14.06 6.24 13.95 6.35 13.95 6.49L13.95 9.73C13.95 9.87 14.06 9.98 14.2 9.98L16.71 9.98C16.86 9.98 16.98 10.12 16.95 10.27L16.58 12.83C16.56 12.95 16.45 13.04 16.33 13.04L14.2 13.04C14.06 13.04 13.95 13.15 13.95 13.29L13.95 20.75C13.95 20.88 13.83 21 13.7 21L10.2 21Z"
		stroke="currentColor" stroke-opacity="1.000000" stroke-width="1.500000" stroke-linejoin="round" />
</svg>