<svg width="24.000000" height="24.000000" viewBox="0 0 24 24" fill="none" xmlns="http://www.w3.org/2000/svg"
	xmlns:xlink="http://www.w3.org/1999/xlink">


	<path id="icon"
		d="M12 21C7.02 21 3 16.97 3 12C3 7.02 7.02 3 12 3C16.97 3 21 7.02 21 12C21 16.97 16.97 21 12 21ZM16 15L14.89 15.55C14.33 15.83 13.66 15.83 13.1 15.55L12.89 15.44C12.33 15.16 11.66 15.16 11.1 15.44L10.89 15.55C10.33 15.83 9.66 15.83 9.1 15.55L8 15M9 9C9.55 9.55 9.55 10.44 9 11M15 9C14.44 9.55 14.44 10.44 15 11"
		stroke="currentColor" stroke-opacity="1.000000" stroke-width="1.500000" stroke-linejoin="round"
		stroke-linecap="round" />
</svg>