<svg width="24.000000" height="24.000000" viewBox="0 0 24 24" fill="none" xmlns="http://www.w3.org/2000/svg"
	xmlns:xlink="http://www.w3.org/1999/xlink">


	<path id="icon"
		d="M12 21C7.02 21 3 16.97 3 12C3 7.02 7.02 3 12 3C16.97 3 21 7.02 21 12C21 16.97 16.97 21 12 21ZM9.5 10C9.22 10 9 9.77 9 9.5C9 9.22 9.22 9 9.5 9C9.77 9 10 9.22 10 9.5C10 9.77 9.77 10 9.5 10ZM9 14C9.73 14.83 10.8 15.35 12 15.35C13.19 15.35 14.26 14.83 15 14M13.5 9.5L15.5 9.5"
		stroke="currentColor" stroke-opacity="1.000000" stroke-width="1.500000" stroke-linejoin="round"
		stroke-linecap="round" />
</svg>