<svg width="24.000000" height="24.000000" viewBox="0 0 24 24" fill="none" xmlns="http://www.w3.org/2000/svg"
	xmlns:xlink="http://www.w3.org/1999/xlink">


	<path id="icon"
		d="M12 21C7.02 21 3 16.97 3 12C3 7.02 7.02 3 12 3C16.97 3 21 7.02 21 12C21 16.97 16.97 21 12 21ZM9 15.35C9.73 14.52 10.8 14 12 14C13.19 14 14.26 14.52 15 15.35M10.5 9.61C10.23 9.85 9.88 10 9.5 10C9.11 10 8.76 9.85 8.5 9.61M15.5 9.61C15.23 9.85 14.88 10 14.5 10C14.11 10 13.76 9.85 13.5 9.61"
		stroke="currentColor" stroke-opacity="1.000000" stroke-width="1.500000" stroke-linejoin="round"
		stroke-linecap="round" />
</svg>