<svg width="24.000000" height="24.000000" viewBox="0 0 24 24" fill="none" xmlns="http://www.w3.org/2000/svg"
	xmlns:xlink="http://www.w3.org/1999/xlink">


	<path id="icon"
		d="M12 21C7.02 21 3 16.97 3 12C3 7.02 7.02 3 12 3C16.97 3 21 7.02 21 12C21 16.97 16.97 21 12 21ZM9.5 16.12C8.48 15.31 9.39 14 10.7 14L13.29 14C14.6 14 15.51 15.31 14.49 16.12C13.81 16.67 12.94 17 12 17C11.05 17 10.18 16.67 9.5 16.12ZM9.5 10C9.22 10 9 9.77 9 9.5C9 9.22 9.22 9 9.5 9C9.77 9 10 9.22 10 9.5C10 9.77 9.77 10 9.5 10ZM13.5 9.5L15.5 9.5"
		stroke="currentColor" stroke-opacity="1.000000" stroke-width="1.500000" stroke-linejoin="round"
		stroke-linecap="round" />
</svg>