<svg width="24.000000" height="24.000000" viewBox="0 0 24 24" fill="none" xmlns="http://www.w3.org/2000/svg"
	xmlns:xlink="http://www.w3.org/1999/xlink">


	<path id="icon"
		d="M12 9L9 9C7.34 9 6 7.65 6 6C6 4.34 7.34 3 9 3L12 3L15 3C16.65 3 18 4.34 18 6C18 7.65 16.65 9 15 9L12 9M12 3L12 9L12 15L12 18C12 19.65 10.65 21 9 21C7.34 21 6 19.65 6 18C6 16.34 7.34 15 9 15M12 15L9 15C7.34 15 6 13.65 6 12C6 10.34 7.34 9 9 9M15 9C13.34 9 12 10.34 12 12C12 13.65 13.34 15 15 15C16.65 15 18 13.65 18 12C18 10.34 16.65 9 15 9Z"
		stroke="currentColor" stroke-opacity="1.000000" stroke-width="1.500000" />
</svg>