<svg width="24.000000" height="24.000000" viewBox="0 0 24 24" fill="none" xmlns="http://www.w3.org/2000/svg"
	xmlns:xlink="http://www.w3.org/1999/xlink">


	<path id="icon"
		d="M5 21C3.89 21 3 20.1 3 19L3 5C3 3.89 3.89 3 5 3L9.35 3C9.74 3 10.1 3.23 10.26 3.59L10.88 5L11.73 6.9C11.89 7.26 12.25 7.5 12.64 7.5L19 7.5C20.1 7.5 21 8.39 21 9.5L21 19C21 20.1 20.1 21 19 21L5 21ZM19 7.5L19 6C19 5.44 18.55 5 18 5L10.88 5"
		stroke="currentColor" stroke-opacity="1.000000" stroke-width="1.500000" stroke-linejoin="round" />
</svg>