<svg width="24.000000" height="24.000000" viewBox="0 0 24 24" fill="none" xmlns="http://www.w3.org/2000/svg"
	xmlns:xlink="http://www.w3.org/1999/xlink">


	<path id="icon"
		d="M3 12C3 9.69 3.86 7.59 5.29 6C6.93 4.15 9.33 3 12 3C13.13 3 14.22 3.21 15.22 3.59C18.6 4.89 21 8.16 21 12C21 15.91 18.49 19.25 15 20.48C14.36 20.71 13.69 20.86 13 20.94C12.67 20.98 12.33 21 12 21C7.02 21 3 16.97 3 12ZM5.29 6L5.74 6.4C6.53 7.08 6.92 8.11 6.79 9.15L6.6 10.67C6.54 11.16 6.81 11.63 7.26 11.82C7.81 12.06 8.44 11.81 8.69 11.27L9.24 10.06C9.41 9.69 9.67 9.37 10 9.12L11.01 8.36C11.33 8.12 11.71 8 12.1 8L13.07 8C14.11 8 14.72 6.84 14.15 5.98C13.78 5.42 13.89 4.67 14.41 4.25L15.22 3.59M15 20.48L15.9 17.77C15.96 17.59 16.04 17.41 16.14 17.24L16.69 16.28C17.35 15.12 16.75 13.64 15.47 13.27L15.04 13.15C14.7 13.05 14.42 12.8 14.28 12.47C13.94 11.61 12.79 11.48 12.26 12.22L11.37 13.47C11.12 13.81 11 14.22 11 14.64L11 14.98C11 15.64 11.21 16.28 11.61 16.81L11.65 16.87C12.19 17.59 12.41 18.5 12.26 19.38L12 21"
		stroke="currentColor" stroke-opacity="1.000000" stroke-width="1.500000" />
</svg>