<svg width="24.000000" height="24.000000" viewBox="0 0 24 24" fill="none" xmlns="http://www.w3.org/2000/svg"
	xmlns:xlink="http://www.w3.org/1999/xlink">


	<path id="icon"
		d="M15 7L18 7C19.65 7 21 8.34 21 10L21 18C21 19.65 19.65 21 18 21L15 21L9 21L6 21C4.34 21 3 19.65 3 18L3 10C3 8.34 4.34 7 6 7L9 7M15 21L15 20C15 18.89 14.1 18 13 18L11 18C9.89 18 9 18.89 9 20L9 21M12 15C11.44 15 11 14.55 11 14C11 13.44 11.44 13 12 13C12.55 13 13 13.44 13 14C13 14.55 12.55 15 12 15ZM15 8C15 8.55 14.55 9 14 9L10 9C9.44 9 9 8.55 9 8L9 6C9 4.34 10.34 3 12 3C13.65 3 15 4.34 15 6L15 8Z"
		stroke="currentColor" stroke-opacity="1.000000" stroke-width="1.500000" stroke-linejoin="round"
		stroke-linecap="round" />
</svg>