<svg width="24.000000" height="24.000000" viewBox="0 0 24 24" fill="none" xmlns="http://www.w3.org/2000/svg"
	xmlns:xlink="http://www.w3.org/1999/xlink">


	<path id="icon"
		d="M15 5L16 5C17.65 5 19 6.34 19 8L19 18C19 19.65 17.65 21 16 21L15 21L9 21L8 21C6.34 21 5 19.65 5 18L5 8C5 6.34 6.34 5 8 5L9 5M9 21L9 20C9 18.89 9.89 18 11 18L13 18C14.1 18 15 18.89 15 20L15 21M12 15C11.44 15 11 14.55 11 14C11 13.44 11.44 13 12 13C12.55 13 13 13.44 13 14C13 14.55 12.55 15 12 15ZM14 6C14 6.55 13.55 7 13 7L11 7C10.44 7 10 6.55 10 6L10 5C10 3.89 10.89 3 12 3C13.1 3 14 3.89 14 5L14 6Z"
		stroke="currentColor" stroke-opacity="1.000000" stroke-width="1.500000" stroke-linejoin="round"
		stroke-linecap="round" />
</svg>