<svg width="24.000000" height="24.000000" viewBox="0 0 24 24" fill="none" xmlns="http://www.w3.org/2000/svg"
	xmlns:xlink="http://www.w3.org/1999/xlink">


	<path id="icon"
		d="M19 3C20.1 3 21 3.89 21 5L21 16L21 19C21 20.1 20.1 21 19 21L5 21C3.89 21 3 20.1 3 19L3 16L3 5C3 3.89 3.89 3 5 3L19 3ZM3 16L7.58 11.41C8.36 10.63 9.63 10.63 10.41 11.41L14 15L17 18M14 15L15.58 13.41C16.36 12.63 17.63 12.63 18.41 13.41L21 16M16.5 9C15.67 9 15 8.32 15 7.5C15 6.67 15.67 6 16.5 6C17.32 6 18 6.67 18 7.5C18 8.32 17.32 9 16.5 9Z"
		stroke="currentColor" stroke-opacity="1.000000" stroke-width="1.500000" stroke-linejoin="round"
		stroke-linecap="round" />
</svg>