<svg width="24.000000" height="24.000000" viewBox="0 0 24 24" fill="none" xmlns="http://www.w3.org/2000/svg"
	xmlns:xlink="http://www.w3.org/1999/xlink">


	<path id="icon"
		d="M10 3C11.23 2.28 12.76 2.28 14 3L18.79 5.76C20.03 6.48 20.79 7.8 20.79 9.23L20.79 14.76C20.79 16.19 20.03 17.51 18.79 18.23L14 21C12.76 21.71 11.23 21.71 10 21L5.2 18.23C3.96 17.51 3.2 16.19 3.2 14.76L3.2 9.23C3.2 7.8 3.96 6.48 5.2 5.76L10 3ZM12 7C11.44 7 11 7.44 11 8C11 8.55 11.44 9 12 9L12 9C12.56 9 13 8.55 13 8C13 7.44 12.56 7 12 7L12 7ZM13 12C13 11.44 12.55 11 12 11C11.44 11 11 11.44 11 12L11 16C11 16.55 11.44 17 12 17C12.55 17 13 16.55 13 16L13 12Z"
		fill="currentColor" fill-opacity="1.000000" fill-rule="evenodd" />
</svg>