<svg width="24.000000" height="24.000000" viewBox="0 0 24 24" fill="none" xmlns="http://www.w3.org/2000/svg"
	xmlns:xlink="http://www.w3.org/1999/xlink">


	<path id="icon"
		d="M2 12C2 6.47 6.47 2 12 2C17.52 2 22 6.47 22 12C22 17.52 17.52 22 12 22C6.47 22 2 17.52 2 12ZM12 7C11.44 7 11 7.44 11 8C11 8.55 11.44 9 12 9L12 9C12.56 9 13 8.55 13 8C13 7.44 12.56 7 12 7L12 7ZM13 12C13 11.44 12.55 11 12 11C11.44 11 11 11.44 11 12L11 16C11 16.55 11.44 17 12 17C12.55 17 13 16.55 13 16L13 12Z"
		fill="currentColor" fill-opacity="1.000000" fill-rule="evenodd" />
</svg>