<svg width="24.000000" height="24.000000" viewBox="0 0 24 24" fill="none" xmlns="http://www.w3.org/2000/svg"
	xmlns:xlink="http://www.w3.org/1999/xlink">


	<path id="icon"
		d="M8.32812 2C7.5332 2 6.76953 2.31604 6.20703 2.87866L2.87891 6.20715C2.31641 6.76978 2 7.53284 2 8.32837L2 15.6716C2 16.4672 2.31641 17.2302 2.87891 17.7928L6.20703 21.1213C6.76953 21.684 7.5332 22 8.32812 22L15.6719 22C16.4668 22 17.2305 21.684 17.793 21.1213L21.1211 17.7928C21.6836 17.2302 22 16.4672 22 15.6716L22 8.32837C22 7.53284 21.6836 6.76978 21.1211 6.20715L17.793 2.87866C17.2305 2.31604 16.4668 2 15.6719 2L8.32812 2ZM12.0098 7C12.5703 7 13.0098 7.43994 13.0098 8C13.0098 8.56006 12.5703 9 12.0098 9L12 9C11.4404 9 11 8.56006 11 8C11 7.43994 11.4404 7 12 7L12.0098 7ZM12 11C11.4404 11 11 11.4399 11 12L11 16C11 16.5601 11.4404 17 12 17C12.5596 17 13 16.5601 13 16L13 12C13 11.4399 12.5596 11 12 11Z"
		clip-rule="evenodd" fill="currentColor" fill-opacity="1.000000" fill-rule="evenodd" />
</svg>