<svg width="24.000000" height="24.000000" viewBox="0 0 24 24" fill="none" xmlns="http://www.w3.org/2000/svg"
	xmlns:xlink="http://www.w3.org/1999/xlink">


	<path id="icon"
		d="M12 16L12 12M12 8L12 8M6.91 20.41C7.28 20.78 7.79 21 8.32 21L15.67 21C16.2 21 16.71 20.78 17.08 20.41L20.41 17.08C20.78 16.71 21 16.2 21 15.67L21 8.32C21 7.79 20.78 7.28 20.41 6.91L17.08 3.58C16.71 3.21 16.2 3 15.67 3L8.32 3C7.79 3 7.28 3.21 6.91 3.58L3.58 6.91C3.21 7.28 3 7.79 3 8.32L3 15.67C3 16.2 3.21 16.71 3.58 17.08L6.91 20.41Z"
		stroke="currentColor" stroke-opacity="1.000000" stroke-width="1.500000" stroke-linejoin="round"
		stroke-linecap="round" />
</svg>