<svg width="24.000000" height="24.000000" viewBox="0 0 24 24" fill="none" xmlns="http://www.w3.org/2000/svg"
	xmlns:xlink="http://www.w3.org/1999/xlink">


	<path id="icon"
		d="M21 18C21 19.65 19.65 21 18 21L6 21C4.34 21 3 19.65 3 18L3 9C3 8.6 3.11 8.23 3.31 7.92C3.46 7.68 3.71 7.51 3.96 7.37L10.56 3.78C11.45 3.29 12.54 3.29 13.43 3.78L20.03 7.37C20.28 7.51 20.53 7.68 20.68 7.92C20.88 8.23 21 8.6 21 9L21 18ZM4 8L10.58 14.58C11.36 15.36 12.63 15.36 13.41 14.58L20 8"
		stroke="currentColor" stroke-opacity="1.000000" stroke-width="1.500000" stroke-linecap="round" />
</svg>