<svg width="24.000000" height="24.000000" viewBox="0 0 24 24" fill="none" xmlns="http://www.w3.org/2000/svg"
	xmlns:xlink="http://www.w3.org/1999/xlink">


	<path id="icon"
		d="M15 11C15 12.65 13.65 14 12 14C10.34 14 9 12.65 9 11L9 6C9 4.34 10.34 3 12 3C13.65 3 15 4.34 15 6L15 11ZM18 10L18 11C18 14.31 15.31 17 12 17C8.68 17 6 14.31 6 11L6 10M12 17L12 21M8 21L12 21L16 21"
		stroke="currentColor" stroke-opacity="1.000000" stroke-width="1.500000" stroke-linejoin="round"
		stroke-linecap="round" />
</svg>