<svg width="24.000000" height="24.000000" viewBox="0 0 24 24" fill="none" xmlns="http://www.w3.org/2000/svg"
	xmlns:xlink="http://www.w3.org/1999/xlink">


	<path id="icon"
		d="M13.91 20.26C15.75 21.52 18.26 21.12 19.62 19.36L20.33 18.46C21.46 17.01 21.12 14.9 19.58 13.88L18.92 13.44C18.31 13.03 17.53 12.98 16.88 13.31C15.67 13.91 14.24 13.88 13.06 13.23L12.77 13.06C12 12.63 11.36 12 10.93 11.22L10.76 10.93C10.11 9.75 10.08 8.32 10.68 7.11C11.01 6.46 10.96 5.68 10.55 5.07L10.11 4.41C9.09 2.87 6.98 2.53 5.53 3.66L4.63 4.37C2.87 5.73 2.47 8.24 3.73 10.08L5.13 12.15C6.93 14.79 9.2 17.06 11.84 18.86L13.91 20.26Z"
		stroke="currentColor" stroke-opacity="1.000000" stroke-width="1.500000" />
</svg>