<svg width="24.000000" height="24.000000" viewBox="0 0 24 24" fill="none" xmlns="http://www.w3.org/2000/svg"
	xmlns:xlink="http://www.w3.org/1999/xlink">


	<path id="icon"
		d="M12 3C15.31 3 18 5.51 18 8.61C18 9.16 17.91 9.72 17.76 10.28C17.16 12.5 15.67 14.42 13.66 16.34C12.75 17.21 11.24 17.21 10.33 16.34C8.82 14.9 7.58 13.36 6.82 11.81C6.29 10.74 6 9.66 6 8.61C6 5.51 8.68 3 12 3ZM6.82 11.81C6.61 11.79 6.4 11.75 6.19 11.71L5.25 11.5C4.09 11.24 3 12.12 3 13.3L3 18.54C3 19.48 3.65 20.29 4.56 20.5L6.19 20.86C7.05 21.05 7.94 21.05 8.8 20.86L15.19 19.44C16.05 19.25 16.94 19.25 17.8 19.44L18.56 19.61C19.81 19.88 21 18.93 21 17.65L21 12.6C21 11.66 20.34 10.85 19.43 10.65L17.76 10.28M12 11C10.89 11 10 10.1 10 9C10 7.89 10.89 7 12 7C13.1 7 14 7.89 14 9C14 10.1 13.1 11 12 11Z"
		stroke="currentColor" stroke-opacity="1.000000" stroke-width="1.500000" />
</svg>