<svg width="24.000000" height="24.000000" viewBox="0 0 24 24" fill="none" xmlns="http://www.w3.org/2000/svg"
	xmlns:xlink="http://www.w3.org/1999/xlink">


	<path id="icon"
		d="M4 17L4 15C5.65 15 7 13.65 7 12C7 10.34 5.65 9 4 9L4 7C4 5.89 4.89 5 6 5L8 5C8 3.34 9.34 2 11 2C12.65 2 14 3.34 14 5L16 5C17.1 5 18 5.89 18 7L18 9C19.65 9 21 10.34 21 12C21 13.65 19.65 15 18 15L18 17C18 18.1 17.1 19 16 19L14 19C14 20.65 12.65 22 11 22C9.34 22 8 20.65 8 19L6 19C4.89 19 4 18.1 4 17Z"
		stroke="currentColor" stroke-opacity="1.000000" stroke-width="1.500000" stroke-linejoin="round" />
</svg>