<svg width="24.000000" height="24.000000" viewBox="0 0 24 24" fill="none" xmlns="http://www.w3.org/2000/svg"
	xmlns:xlink="http://www.w3.org/1999/xlink">


	<path id="icon"
		d="M4 12C4 10.34 5.34 9 7 9C8.09 9 9.04 9.58 9.57 10.45C9.84 10.9 10 11.43 10 12C10 12.56 9.84 13.09 9.57 13.54C9.04 14.41 8.09 15 7 15C5.34 15 4 13.65 4 12ZM17 9C15.9 9 14.95 8.41 14.42 7.54C14.15 7.09 14 6.56 14 6C14 4.34 15.34 3 17 3C18.65 3 20 4.34 20 6C20 7.65 18.65 9 17 9ZM17 21C15.34 21 14 19.65 14 18C14 17.43 14.15 16.9 14.42 16.45C14.95 15.58 15.9 15 17 15C18.65 15 20 16.34 20 18C20 19.65 18.65 21 17 21ZM9.57 13.54L14.42 16.45M14.42 7.54L9.57 10.45"
		stroke="currentColor" stroke-opacity="1.000000" stroke-width="1.500000" stroke-linejoin="round" />
</svg>