<svg width="24.000000" height="24.000000" viewBox="0 0 24 24" fill="none" xmlns="http://www.w3.org/2000/svg"
	xmlns:xlink="http://www.w3.org/1999/xlink">


	<path id="icon"
		d="M9 14C7.89 14 7 13.1 7 12C7 10.89 7.89 10 9 10C10.1 10 11 10.89 11 12C11 13.1 10.1 14 9 14ZM15 8C13.89 8 13 7.1 13 6C13 4.89 13.89 4 15 4C16.1 4 17 4.89 17 6C17 7.1 16.1 8 15 8ZM17 20C15.89 20 15 19.1 15 18C15 16.89 15.89 16 17 16C18.1 16 19 16.89 19 18C19 19.1 18.1 20 17 20ZM3 6L13 6M17 6L21 6M11 12L21 12M3 12L7 12M3 18L15 18M19 18L21 18"
		stroke="currentColor" stroke-opacity="1.000000" stroke-width="1.500000" stroke-linejoin="round"
		stroke-linecap="round" />
</svg>