<svg width="24.000000" height="24.000000" viewBox="0 0 24 24" fill="none" xmlns="http://www.w3.org/2000/svg"
	xmlns:xlink="http://www.w3.org/1999/xlink">


	<path id="icon"
		d="M12 16C9.79 16 8 14.2 8 12C8 9.79 9.79 8 12 8C14.2 8 16 9.79 16 12C16 14.2 14.2 16 12 16ZM20.75 12L18.87 12M16.86 7.13L18.18 5.81M12 3.25L12 5.12M7.13 7.13L5.81 5.81M3.25 12L5.12 12M7.13 16.86L5.81 18.18M12 20.75L12 18.87M16.86 16.86L18.18 18.18"
		stroke="currentColor" stroke-opacity="1.000000" stroke-width="1.500000" stroke-linejoin="round"
		stroke-linecap="round" />
</svg>