<svg width="24.000000" height="24.000000" viewBox="0 0 24 24" fill="none" xmlns="http://www.w3.org/2000/svg"
	xmlns:xlink="http://www.w3.org/1999/xlink">


	<path id="icon"
		d="M12 11C9.79 11 8 9.2 8 7C8 4.79 9.79 3 12 3C14.2 3 16 4.79 16 7C16 9.2 14.2 11 12 11ZM5 21C5 17.68 7.68 15 11 15L13 15M16 18.72C16 17.22 17.22 16 18.72 16C20.23 16 21.45 17.22 21.45 18.72C21.45 19.48 21.14 20.16 20.65 20.65C20.16 21.14 19.48 21.45 18.72 21.45C17.22 21.45 16 20.23 16 18.72ZM22 22L20.65 20.65"
		stroke="currentColor" stroke-opacity="1.000000" stroke-width="1.500000" stroke-linejoin="round"
		stroke-linecap="round" />
</svg>