<svg width="24.000000" height="24.000000" viewBox="0 0 24 24" fill="none" xmlns="http://www.w3.org/2000/svg"
	xmlns:xlink="http://www.w3.org/1999/xlink">


	<path id="icon"
		d="M9 11C6.79 11 5 9.2 5 7C5 4.79 6.79 3 9 3C11.2 3 13 4.79 13 7C13 9.2 11.2 11 9 11ZM2 21C2 17.68 4.68 15 8 15L10 15C13.31 15 16 17.68 16 21M16 3C18.2 3 20 4.79 20 7C20 8.86 18.72 10.42 17 10.87M18 15.34C20.33 16.16 22 18.38 22 21"
		stroke="currentColor" stroke-opacity="1.000000" stroke-width="1.500000" stroke-linejoin="round"
		stroke-linecap="round" />
</svg>