<svg width="24.000000" height="24.000000" viewBox="0 0 24 24" fill="none" xmlns="http://www.w3.org/2000/svg"
	xmlns:xlink="http://www.w3.org/1999/xlink">


	<path id="icon"
		d="M12 11C9.79 11 8 9.2 8 7C8 4.79 9.79 3 12 3C14.2 3 16 4.79 16 7C16 9.2 14.2 11 12 11ZM11 15C7.68 15 5 17.68 5 21M18 21L18 22M21 18L22 18M18 15L18 14M15 18L14 18M20.12 15.87L21 15M20.12 15.87C20.66 16.42 21 17.17 21 18C21 18.82 20.66 19.57 20.12 20.12C19.57 20.66 18.82 21 18 21C17.17 21 16.42 20.66 15.87 20.12C15.33 19.57 15 18.82 15 18C15 17.17 15.33 16.42 15.87 15.87C16.42 15.33 17.17 15 18 15C18.82 15 19.57 15.33 20.12 15.87ZM15.87 15.87L15 15M15.87 20.12L15 21M20.12 20.12L21 21"
		stroke="currentColor" stroke-opacity="1.000000" stroke-width="1.500000" stroke-linejoin="round"
		stroke-linecap="round" />
</svg>