<svg width="24.000000" height="24.000000" viewBox="0 0 24 24" fill="none" xmlns="http://www.w3.org/2000/svg"
	xmlns:xlink="http://www.w3.org/1999/xlink">


	<path id="icon"
		d="M12 11C9.79 11 8 9.2 8 7C8 4.79 9.79 3 12 3C14.2 3 16 4.79 16 7C16 9.2 14.2 11 12 11ZM11 15C7.68 15 5 17.68 5 21M21.2 20.4C20.47 21.37 19.3 22 18 22C16.69 22 15.52 21.37 14.79 20.4C14.29 19.73 14 18.9 14 18C14 17.09 14.29 16.26 14.79 15.6C15.52 14.62 16.69 14 18 14C19.3 14 20.47 14.62 21.2 15.6C21.7 16.26 22 17.09 22 18C22 18.9 21.7 19.73 21.2 20.4ZM18.79 18.79L18.58 18.58C18.21 18.21 18 17.7 18 17.17L18 16.4"
		stroke="currentColor" stroke-opacity="1.000000" stroke-width="1.500000" stroke-linejoin="round"
		stroke-linecap="round" />
</svg>