<svg width="24.000000" height="24.000000" viewBox="0 0 24 24" fill="none" xmlns="http://www.w3.org/2000/svg"
	xmlns:xlink="http://www.w3.org/1999/xlink">


	<path id="icon"
		d="M12 11C9.79 11 8 9.2 8 7C8 4.79 9.79 3 12 3C14.2 3 16 4.79 16 7C16 9.2 14.2 11 12 11ZM5 21C5 17.68 7.68 15 11 15L13 15M22 17C22.55 16.44 22.55 15.55 22 15C21.44 14.44 20.55 14.44 20 15L15.41 19.58C15.14 19.85 15 20.21 15 20.58C15 21.36 15.63 22 16.41 22C16.78 22 17.14 21.85 17.41 21.58L22 17Z"
		stroke="currentColor" stroke-opacity="1.000000" stroke-width="1.500000" stroke-linejoin="round"
		stroke-linecap="round" />
</svg>