<svg width="24.000000" height="24.000000" viewBox="0 0 24 24" fill="none" xmlns="http://www.w3.org/2000/svg"
	xmlns:xlink="http://www.w3.org/1999/xlink">


	<path id="icon"
		d="M12 13C10.34 13 9 11.65 9 10C9 8.34 10.34 7 12 7C13.65 7 15 8.34 15 10C15 11.65 13.65 13 12 13ZM12 21C7.02 21 3 16.97 3 12C3 7.02 7.02 3 12 3C16.97 3 21 7.02 21 12C21 16.97 16.97 21 12 21ZM7 19.5L7 19C7 17.34 8.34 16 10 16L14 16C15.65 16 17 17.34 17 19L17 19.5"
		stroke="currentColor" stroke-opacity="1.000000" stroke-width="1.500000" stroke-linejoin="round"
		stroke-linecap="round" />
</svg>