<svg width="24.000000" height="24.000000" viewBox="0 0 24 24" fill="none" xmlns="http://www.w3.org/2000/svg"
	xmlns:xlink="http://www.w3.org/1999/xlink">


	<path id="icon"
		d="M7 13C5.34 13 4 11.65 4 10C4 8.34 5.34 7 7 7C8.65 7 10 8.34 10 10C10 11.65 8.65 13 7 13ZM2 20C2 17.79 3.79 16 6 16L8 16C10.2 16 12 17.79 12 20M17 10C15.34 10 14 8.65 14 7C14 5.34 15.34 4 17 4C18.65 4 20 5.34 20 7C20 8.65 18.65 10 17 10ZM13 14.35C13.73 13.52 14.8 13 16 13L18 13C20.2 13 22 14.79 22 17"
		stroke="currentColor" stroke-opacity="1.000000" stroke-width="1.500000" stroke-linejoin="round"
		stroke-linecap="round" />
</svg>