<svg width="236" height="26" fill="none" xmlns="http://www.w3.org/2000/svg"><rect rx="0" width="235" height="25" transform="translate(.5 .5)" fill="none"/><path d="M26.58 18.96h-3.92v-4.32c-.16.11-.32.21-.49.3-.16.09-.33.17-.51.24q-.67.28-1.36.4-.49.08-.99.08H7.36c-.46 0-.91.09-1.32.27-.41.17-.76.41-1.07.71l-.02.02q-.43.44-.7 1.05c-.17.4-.26.83-.26 1.29L0 18.96v-7.28q0-.7.19-1.35.07-.24.17-.47.27-.64.69-1.15.15-.18.32-.35.15-.15.31-.28.53-.44 1.19-.72.22-.09.45-.16.66-.2 1.39-.2h21.87v11.96Zm117.38-2.64q.38 0 .71-.12h.01c.22-.09.42-.2.59-.35.18-.16.32-.34.43-.54.12-.21.19-.44.22-.69h3.9q-.03.56-.19 1.08-.1.32-.25.62c-.27.53-.62 1-1.04 1.39-.43.39-.92.7-1.47.92q-.23.09-.46.16-.61.17-1.27.17h-17.07c-.64 0-1.25-.12-1.83-.36-.56-.25-1.06-.57-1.48-.99a4.9 4.9 0 0 1-1.03-1.49c-.24-.57-.36-1.18-.36-1.83v-2.57c0-.65.12-1.26.36-1.83.26-.57.6-1.07 1.03-1.5.42-.42.92-.75 1.48-1 .58-.24 1.19-.36 1.83-.35h17.07q.66 0 1.27.18.23.06.46.16c.55.22 1.04.53 1.47.92.42.39.77.85 1.04 1.38q.15.31.25.63.16.51.19 1.07h-3.9c-.03-.24-.1-.46-.22-.67-.11-.21-.25-.39-.43-.54-.17-.16-.37-.28-.59-.36q-.07-.03-.13-.05-.28-.09-.59-.09h-14.71q-.3 0-.58.08-.1.03-.2.07c-.24.11-.45.25-.63.43q-.06.06-.11.12-.19.23-.32.52c-.09.23-.14.49-.14.76v2.7c0 .28.05.54.14.78a2.086 2.086 0 0 0 1.06 1.05q.04.02.09.03.33.11.69.11h14.71ZM44.54 14.4c.27.57.68 1.04 1.21 1.4.54.35 1.15.52 1.82.52h7.9v2.64h-9.14c-.79 0-1.53-.13-2.23-.41-.69-.28-1.31-.66-1.85-1.16l-.1-.1a.324.324 0 0 0-.08-.09c-.38-.38-.71-.81-.99-1.27-.27-.48-.48-.99-.6-1.53H36.1c-.45.02-.87.12-1.27.3-.39.17-.74.41-1.05.72-.29.27-.52.59-.69.95q-.06.13-.11.27-.15.41-.19.85v1.47h-3.92V7.04h22.91c.51 0 .99.1 1.44.3q.45.2.82.49.18.14.34.31c.35.33.61.71.8 1.16q.09.19.15.38.16.5.16 1.05t-.16 1.05q-.06.19-.15.38c-.19.45-.45.84-.8 1.18-.33.33-.72.58-1.16.78-.45.19-.93.28-1.44.28h-7.24Zm42.23-7.36v11.92h-3.9V7.04h3.9Zm7.47 5.04q.71-.29 1.44-.41.5-.08 1.01-.08h9.22v2.64h-9.22c-.5 0-.97.09-1.41.28-.44.18-.82.44-1.15.77q-.18.17-.33.37-.27.35-.45.77c-.18.43-.28.9-.28 1.4v1.14h-3.9V7.04h26.48v2.64H93.07v3.05c.36-.25.75-.47 1.17-.65Zm27.23-5.04v11.92h-3.9V7.04h3.9Zm34.17 0v11.92h-3.9V7.04h3.9Zm7.1 11.92c-.65 0-1.26-.12-1.84-.36-.56-.25-1.06-.58-1.48-1-.43-.43-.76-.92-1.01-1.48q-.1-.23-.17-.47-.2-.65-.2-1.36V7.04h3.9v7.31q0 .36.11.68l.04.1c.1.24.25.44.43.62s.39.33.62.43q.1.05.21.08.28.08.58.08h16.7v-9.3h3.89v11.92h-21.78ZM231.3 7.04c.65 0 1.25.12 1.82.37q.66.28 1.19.72.16.13.31.28c.43.42.76.92 1.01 1.49.24.57.37 1.17.37 1.82v7.24h-3.9v-7.31c0-.27-.06-.53-.17-.76a1.8 1.8 0 0 0-.41-.64q-.05-.05-.1-.09-.24-.21-.54-.34-.03-.01-.07-.02-.32-.13-.7-.13h-9.86c-.95 0-1.84.18-2.67.54-.82.35-1.55.83-2.17 1.46-.62.61-1.11 1.33-1.48 2.16a6.72 6.72 0 0 0-.52 2.64v2.49h-3.9v-2.49c0-.93-.18-1.81-.55-2.64-.35-.83-.84-1.55-1.47-2.16a6.589 6.589 0 0 0-2.17-1.46c-.83-.36-1.72-.54-2.66-.54h-9.86c-.28 0-.54.05-.78.15q-.2.09-.37.22-.14.09-.26.21-.05.06-.11.12-.19.23-.32.52c-.09.23-.14.49-.14.76v7.31h-3.9v-7.24q0-.79.24-1.5.06-.16.13-.32c.24-.57.58-1.07 1-1.49.43-.42.92-.76 1.49-1a4.55 4.55 0 0 1 1.84-.37h12.02c.8 0 1.57.1 2.32.29.74.18 1.45.44 2.11.78.67.33 1.29.73 1.85 1.22.58.48 1.09 1.01 1.54 1.59.44-.58.95-1.11 1.52-1.59q.75-.64 1.6-1.09.12-.07.25-.13c.67-.34 1.38-.6 2.13-.78.74-.19 1.51-.29 2.31-.29h12.03ZM80.96 9.68H70.39c.53.64.93 1.34 1.22 2.12.3.77.45 1.59.45 2.46v4.7h-3.9v-4.91q0-.67-.2-1.28-.06-.21-.16-.42-.24-.57-.62-1.04-.14-.18-.3-.34c-.4-.4-.86-.72-1.39-.94-.54-.23-1.11-.35-1.71-.35H56.9V7.06h24.06v2.62ZM19.31 13c.45 0 .89-.08 1.29-.25.42-.18.77-.42 1.07-.72.31-.3.55-.66.72-1.06q.06-.12.1-.24.17-.5.17-1.06v-.04H5.91q-.3 0-.58.09-.1.03-.2.07c-.25.11-.46.25-.64.43s-.33.39-.43.64q-.15.35-.15.76v2.48c.17-.13.35-.24.53-.33.19-.11.38-.21.57-.29q.48-.2.98-.32.67-.16 1.37-.16h11.95Zm31.22-1.24q.22 0 .41-.08.18-.07.33-.22c.08-.09.15-.2.2-.32.07-.12.1-.26.1-.41q0-.22-.08-.4-.07-.18-.22-.33-.16-.17-.36-.25-.18-.07-.38-.07H32.79v3.12c.16-.12.32-.22.49-.31.17-.08.35-.17.53-.25.6-.24 1.19-.4 1.77-.46h.5c.06-.01.11-.02.13-.02h14.32Zm-1.95 4.37v-.01l.02.01h-.02Z" fill="#FFF" fill-rule="evenodd"/></svg>